<svg xmlns="http://www.w3.org/2000/svg" width="980" height="320">
<rect x="0" y="0" width="980" height="320" fill="white"/>
<text x="70" y="20" font-size="16" fill="#222">Autoresearch Score vs Iteration</text>
<line x1="70" y1="270" x2="950" y2="270" stroke="#444"/>
<line x1="70" y1="30" x2="70" y2="270" stroke="#444"/>
<line x1="70" y1="270.00" x2="950" y2="270.00" stroke="#eee"/><text x="60" y="274.00" text-anchor="end" font-size="12" fill="#666">0.98</text><line x1="70" y1="222.00" x2="950" y2="222.00" stroke="#eee"/><text x="60" y="226.00" text-anchor="end" font-size="12" fill="#666">2.93</text><line x1="70" y1="174.00" x2="950" y2="174.00" stroke="#eee"/><text x="60" y="178.00" text-anchor="end" font-size="12" fill="#666">4.88</text><line x1="70" y1="126.00" x2="950" y2="126.00" stroke="#eee"/><text x="60" y="130.00" text-anchor="end" font-size="12" fill="#666">6.82</text><line x1="70" y1="78.00" x2="950" y2="78.00" stroke="#eee"/><text x="60" y="82.00" text-anchor="end" font-size="12" fill="#666">8.77</text><line x1="70" y1="30.00" x2="950" y2="30.00" stroke="#eee"/><text x="60" y="34.00" text-anchor="end" font-size="12" fill="#666">10.72</text>
<line x1="70.00" y1="30" x2="70.00" y2="270" stroke="#f5f5f5"/><text x="70.00" y="290" text-anchor="middle" font-size="12" fill="#666">1</text><line x1="195.71" y1="30" x2="195.71" y2="270" stroke="#f5f5f5"/><text x="195.71" y="290" text-anchor="middle" font-size="12" fill="#666">5</text><line x1="321.43" y1="30" x2="321.43" y2="270" stroke="#f5f5f5"/><text x="321.43" y="290" text-anchor="middle" font-size="12" fill="#666">9</text><line x1="447.14" y1="30" x2="447.14" y2="270" stroke="#f5f5f5"/><text x="447.14" y="290" text-anchor="middle" font-size="12" fill="#666">13</text><line x1="572.86" y1="30" x2="572.86" y2="270" stroke="#f5f5f5"/><text x="572.86" y="290" text-anchor="middle" font-size="12" fill="#666">17</text><line x1="698.57" y1="30" x2="698.57" y2="270" stroke="#f5f5f5"/><text x="698.57" y="290" text-anchor="middle" font-size="12" fill="#666">21</text><line x1="824.29" y1="30" x2="824.29" y2="270" stroke="#f5f5f5"/><text x="824.29" y="290" text-anchor="middle" font-size="12" fill="#666">25</text><line x1="950.00" y1="30" x2="950.00" y2="270" stroke="#f5f5f5"/><text x="950.00" y="290" text-anchor="middle" font-size="12" fill="#666">29</text>
<polyline fill="none" stroke="#1f77b4" stroke-width="2" points="70.00,266.73 101.43,103.53 132.86,251.78 164.29,267.18 195.71,267.51 227.14,45.74 258.57,218.04 290.00,216.35 321.43,30.00 352.86,208.96 384.29,256.19 415.71,165.73 447.14,182.70 478.57,169.29 510.00,112.01 541.43,269.25 572.86,198.72 604.29,255.03 635.71,160.72 667.14,159.58 698.57,209.72 730.00,205.75 761.43,157.61 792.86,161.75 824.29,270.00 855.71,255.24 887.14,199.84 918.57,269.76 950.00,269.57"/>
<circle cx="70.00" cy="266.73" r="4" fill="#2ca02c"/><circle cx="101.43" cy="103.53" r="4" fill="#2ca02c"/><circle cx="132.86" cy="251.78" r="4" fill="#d62728"/><circle cx="164.29" cy="267.18" r="4" fill="#d62728"/><circle cx="195.71" cy="267.51" r="4" fill="#d62728"/><circle cx="227.14" cy="45.74" r="4" fill="#2ca02c"/><circle cx="258.57" cy="218.04" r="4" fill="#d62728"/><circle cx="290.00" cy="216.35" r="4" fill="#d62728"/><circle cx="321.43" cy="30.00" r="4" fill="#2ca02c"/><circle cx="352.86" cy="208.96" r="4" fill="#d62728"/><circle cx="384.29" cy="256.19" r="4" fill="#d62728"/><circle cx="415.71" cy="165.73" r="4" fill="#d62728"/><circle cx="447.14" cy="182.70" r="4" fill="#d62728"/><circle cx="478.57" cy="169.29" r="4" fill="#d62728"/><circle cx="510.00" cy="112.01" r="4" fill="#d62728"/><circle cx="541.43" cy="269.25" r="4" fill="#2ca02c"/><circle cx="572.86" cy="198.72" r="4" fill="#2ca02c"/><circle cx="604.29" cy="255.03" r="4" fill="#d62728"/><circle cx="635.71" cy="160.72" r="4" fill="#2ca02c"/><circle cx="667.14" cy="159.58" r="4" fill="#d62728"/><circle cx="698.57" cy="209.72" r="4" fill="#d62728"/><circle cx="730.00" cy="205.75" r="4" fill="#d62728"/><circle cx="761.43" cy="157.61" r="4" fill="#2ca02c"/><circle cx="792.86" cy="161.75" r="4" fill="#d62728"/><circle cx="824.29" cy="270.00" r="4" fill="#d62728"/><circle cx="855.71" cy="255.24" r="4" fill="#d62728"/><circle cx="887.14" cy="199.84" r="4" fill="#d62728"/><circle cx="918.57" cy="269.76" r="4" fill="#d62728"/><circle cx="950.00" cy="269.57" r="4" fill="#d62728"/>
<text x="740" y="24" font-size="12" fill="#2ca02c">green: keep</text>
<text x="850" y="24" font-size="12" fill="#d62728">red: revert</text>
</svg>
