<svg xmlns="http://www.w3.org/2000/svg" width="980" height="320">
<rect x="0" y="0" width="980" height="320" fill="white"/>
<text x="70" y="20" font-size="16" fill="#222">Autoresearch Score vs Iteration</text>
<line x1="70" y1="270" x2="950" y2="270" stroke="#444"/>
<line x1="70" y1="30" x2="70" y2="270" stroke="#444"/>
<line x1="70" y1="270.00" x2="950" y2="270.00" stroke="#eee"/><text x="60" y="274.00" text-anchor="end" font-size="12" fill="#666">0.06</text><line x1="70" y1="222.00" x2="950" y2="222.00" stroke="#eee"/><text x="60" y="226.00" text-anchor="end" font-size="12" fill="#666">0.51</text><line x1="70" y1="174.00" x2="950" y2="174.00" stroke="#eee"/><text x="60" y="178.00" text-anchor="end" font-size="12" fill="#666">0.96</text><line x1="70" y1="126.00" x2="950" y2="126.00" stroke="#eee"/><text x="60" y="130.00" text-anchor="end" font-size="12" fill="#666">1.41</text><line x1="70" y1="78.00" x2="950" y2="78.00" stroke="#eee"/><text x="60" y="82.00" text-anchor="end" font-size="12" fill="#666">1.86</text><line x1="70" y1="30.00" x2="950" y2="30.00" stroke="#eee"/><text x="60" y="34.00" text-anchor="end" font-size="12" fill="#666">2.31</text>
<line x1="70.00" y1="30" x2="70.00" y2="270" stroke="#f5f5f5"/><text x="70.00" y="290" text-anchor="middle" font-size="12" fill="#666">1</text><line x1="195.71" y1="30" x2="195.71" y2="270" stroke="#f5f5f5"/><text x="195.71" y="290" text-anchor="middle" font-size="12" fill="#666">2</text><line x1="321.43" y1="30" x2="321.43" y2="270" stroke="#f5f5f5"/><text x="321.43" y="290" text-anchor="middle" font-size="12" fill="#666">3</text><line x1="447.14" y1="30" x2="447.14" y2="270" stroke="#f5f5f5"/><text x="447.14" y="290" text-anchor="middle" font-size="12" fill="#666">4</text><line x1="572.86" y1="30" x2="572.86" y2="270" stroke="#f5f5f5"/><text x="572.86" y="290" text-anchor="middle" font-size="12" fill="#666">5</text><line x1="698.57" y1="30" x2="698.57" y2="270" stroke="#f5f5f5"/><text x="698.57" y="290" text-anchor="middle" font-size="12" fill="#666">6</text><line x1="824.29" y1="30" x2="824.29" y2="270" stroke="#f5f5f5"/><text x="824.29" y="290" text-anchor="middle" font-size="12" fill="#666">7</text><line x1="950.00" y1="30" x2="950.00" y2="270" stroke="#f5f5f5"/><text x="950.00" y="290" text-anchor="middle" font-size="12" fill="#666">8</text>
<polyline fill="none" stroke="#1f77b4" stroke-width="2" points="70.00,114.96 195.71,270.00 321.43,30.00 447.14,43.65 572.86,246.08 698.57,47.58 824.29,185.64 950.00,161.33"/>
<circle cx="70.00" cy="114.96" r="4" fill="#2ca02c"/><circle cx="195.71" cy="270.00" r="4" fill="#d62728"/><circle cx="321.43" cy="30.00" r="4" fill="#2ca02c"/><circle cx="447.14" cy="43.65" r="4" fill="#d62728"/><circle cx="572.86" cy="246.08" r="4" fill="#d62728"/><circle cx="698.57" cy="47.58" r="4" fill="#d62728"/><circle cx="824.29" cy="185.64" r="4" fill="#d62728"/><circle cx="950.00" cy="161.33" r="4" fill="#2ca02c"/>
<text x="740" y="24" font-size="12" fill="#2ca02c">green: keep</text>
<text x="850" y="24" font-size="12" fill="#d62728">red: revert</text>
</svg>
