<svg xmlns="http://www.w3.org/2000/svg" width="980" height="320">
<rect x="0" y="0" width="980" height="320" fill="white"/>
<text x="70" y="20" font-size="16" fill="#222">Autoresearch Score vs Iteration</text>
<line x1="70" y1="270" x2="950" y2="270" stroke="#444"/>
<line x1="70" y1="30" x2="70" y2="270" stroke="#444"/>
<line x1="70" y1="270.00" x2="950" y2="270.00" stroke="#eee"/><text x="60" y="274.00" text-anchor="end" font-size="12" fill="#666">1.49</text><line x1="70" y1="222.00" x2="950" y2="222.00" stroke="#eee"/><text x="60" y="226.00" text-anchor="end" font-size="12" fill="#666">5.08</text><line x1="70" y1="174.00" x2="950" y2="174.00" stroke="#eee"/><text x="60" y="178.00" text-anchor="end" font-size="12" fill="#666">8.66</text><line x1="70" y1="126.00" x2="950" y2="126.00" stroke="#eee"/><text x="60" y="130.00" text-anchor="end" font-size="12" fill="#666">12.24</text><line x1="70" y1="78.00" x2="950" y2="78.00" stroke="#eee"/><text x="60" y="82.00" text-anchor="end" font-size="12" fill="#666">15.82</text><line x1="70" y1="30.00" x2="950" y2="30.00" stroke="#eee"/><text x="60" y="34.00" text-anchor="end" font-size="12" fill="#666">19.40</text>
<line x1="70.00" y1="30" x2="70.00" y2="270" stroke="#f5f5f5"/><text x="70.00" y="290" text-anchor="middle" font-size="12" fill="#666">1</text><line x1="187.33" y1="30" x2="187.33" y2="270" stroke="#f5f5f5"/><text x="187.33" y="290" text-anchor="middle" font-size="12" fill="#666">3</text><line x1="304.67" y1="30" x2="304.67" y2="270" stroke="#f5f5f5"/><text x="304.67" y="290" text-anchor="middle" font-size="12" fill="#666">5</text><line x1="422.00" y1="30" x2="422.00" y2="270" stroke="#f5f5f5"/><text x="422.00" y="290" text-anchor="middle" font-size="12" fill="#666">7</text><line x1="598.00" y1="30" x2="598.00" y2="270" stroke="#f5f5f5"/><text x="598.00" y="290" text-anchor="middle" font-size="12" fill="#666">10</text><line x1="715.33" y1="30" x2="715.33" y2="270" stroke="#f5f5f5"/><text x="715.33" y="290" text-anchor="middle" font-size="12" fill="#666">12</text><line x1="832.67" y1="30" x2="832.67" y2="270" stroke="#f5f5f5"/><text x="832.67" y="290" text-anchor="middle" font-size="12" fill="#666">14</text><line x1="950.00" y1="30" x2="950.00" y2="270" stroke="#f5f5f5"/><text x="950.00" y="290" text-anchor="middle" font-size="12" fill="#666">16</text>
<polyline fill="none" stroke="#1f77b4" stroke-width="2" points="70.00,194.12 128.67,201.90 187.33,231.36 246.00,269.55 304.67,231.48 363.33,269.24 422.00,270.00 480.67,126.25 539.33,228.40 598.00,30.00 656.67,113.16 715.33,76.35 774.00,220.94 832.67,213.32 891.33,240.75 950.00,212.20"/>
<circle cx="70.00" cy="194.12" r="4" fill="#2ca02c"/><circle cx="128.67" cy="201.90" r="4" fill="#d62728"/><circle cx="187.33" cy="231.36" r="4" fill="#d62728"/><circle cx="246.00" cy="269.55" r="4" fill="#d62728"/><circle cx="304.67" cy="231.48" r="4" fill="#d62728"/><circle cx="363.33" cy="269.24" r="4" fill="#d62728"/><circle cx="422.00" cy="270.00" r="4" fill="#d62728"/><circle cx="480.67" cy="126.25" r="4" fill="#2ca02c"/><circle cx="539.33" cy="228.40" r="4" fill="#d62728"/><circle cx="598.00" cy="30.00" r="4" fill="#2ca02c"/><circle cx="656.67" cy="113.16" r="4" fill="#d62728"/><circle cx="715.33" cy="76.35" r="4" fill="#d62728"/><circle cx="774.00" cy="220.94" r="4" fill="#d62728"/><circle cx="832.67" cy="213.32" r="4" fill="#d62728"/><circle cx="891.33" cy="240.75" r="4" fill="#d62728"/><circle cx="950.00" cy="212.20" r="4" fill="#d62728"/>
<text x="740" y="24" font-size="12" fill="#2ca02c">green: keep</text>
<text x="850" y="24" font-size="12" fill="#d62728">red: revert</text>
</svg>
